<svg xmlns="http://www.w3.org/2000/svg" viewBox="5.29 4.89 551.22 164.01"><path fill="#fcfcfc" d="M22.2 168.9a24 24 0 0 1-14.5-9.5c-3-4.9-2.2-11.6-2.2-17.3V33.3c0-11.7-2.4-19.7 9-26.3 5.2-3 8-1.8 13.6-1.8h371l110 .2 18.5-.2c3.5 0 11.8-.7 14.8 0 7.8 2 10.6 9.3 14 15.2-.4 10.3 0 23 0 33.4V118c0 6.7.6 31-1 35.7-2.6 6.8-3 6.3-7.7 11.1-10.6 6.6-18.3 2.7-29.2 4-9.4-.3-19.5-.1-29-.1H53.4c-10.3 0-21-.2-31.1 0"/><path d="M27.7 8.2c8.8-.4 20.6 0 29.6 0h480.5c3.2 0 5.6 1.3 8 3.4 4.3 4 5.7 10.3 5.7 16q.2 12.3 0 24.5v80.8c.1 16 2.6 30.4-18.4 31-11.5.3-23.9 0-35.4 0H48.2q-12.2.2-24.5-.1c-3.3-.2-7.1-1.3-9.5-3.6q-5-5-5.1-12V38.8c0-5.7-.3-11.7.2-17.4.9-10.8 9.4-12.9 18.4-13.2"/><path fill="#fcfcfc" d="M119 44.4c6.7 1.8 16.8 4.1 22.5 7.7 3.2 2 7.8 11.7 9.5 15.2 5 10.4 7.8 22 9 33.4.6 5.7 1.3 12.4-.1 18-7.7 7.2-19.7 11.9-29.3 15.7a69 69 0 0 1-6.6-10c2.2-1.4 8.5-4 9.5-5.7l-.2-.4c-2.7-1-7.4 1.2-10.3 2.2-19.3 5.9-31.6 3.9-50.1-2.4a4 4 0 0 0-3.3.3v.5c.9.7 8.2 4.6 9.9 5.6a99 99 0 0 1-6.5 10c-11.9-4.7-19.3-7.6-29.6-15.7a105 105 0 0 1 15.3-63 13 13 0 0 1 3.4-3.8 87 87 0 0 1 22.2-7.3h.4c1.8 1.5 2.7 4 3 6.2l13.5-.4q7.2.1 14.4.5c.6-3 1.6-4.3 3.5-6.6"/><path d="M80.9 81.8c6.1-.6 11 4.4 11.9 10.1a13 13 0 0 1-2.3 9.6 10 10 0 0 1-7 4.3c-2.2 0-3.4.1-5.3-.8-6-3-8.5-10.8-5.3-16.8 2-3.8 4-5 8-6.4m39.1 0q3.8-.2 6.9 2c8.3 5.5 5.9 20.3-4.3 22-13.9.8-17.2-19.3-2.6-24"/><path fill="#fcfcfc" d="M197.1 77.3h14.4c6.4 0 11.6-.2 17.8 1.7 12.8 4 18.8 13.6 18.7 26.7-.1 9.4-1 15.6-8.1 22.8-8.8 7.6-16.5 7.8-27.5 7.8q-7.7 0-15.3-.2z"/><path d="M209 85.4c12.9-.3 26.2 2 26.7 18 .2 7.6.2 13.2-5.2 19.4-5.6 5.4-14.3 5.4-21.6 5.2z"/><path fill="#fcfcfc" d="M468.7 75.3h9c-.3 20 0 40.9 0 61-3.9 0-7.1 0-11-.3 0-2.3.1-3.3.4-5.6-1.7 2-3.3 3.7-5.8 4.7a24 24 0 0 1-16-.3 18 18 0 0 1-5.8-4.9 28 28 0 0 1-4.3-20.2c1.3-12 10.4-19.1 22.3-17.2 4.5.7 6.4 2.1 9 5.6-1-5-.7-17.3-.6-22.8z"/><path d="M453.2 101.5c5.9-.8 11 .5 12.4 6.8 1.6 7.3 1.4 15.8-6.2 19.1-11.7 4-15.3-12.7-11.7-20.5 1.4-3 2.6-4.2 5.5-5.4"/><path fill="#fcfcfc" d="M373 92.3a22.3 22.3 0 1 1 7 44.1 22.3 22.3 0 0 1-7-44"/><path d="M373.3 101.5c13.6-1.6 14.9 9.4 12 20.3-.8 3-3.6 4.7-6.2 5.8-13.5 3-15.9-16-9.4-23.9q1.5-1.6 3.6-2.2"/><path fill="#fcfcfc" d="M290.3 92.4a32 32 0 0 1 18.7 3.5l-2.5 7.9c-3.6-1.3-15-4-18-1.4-2.3 4.6 4 6.7 7.6 7.7 10.7 3 19.4 10.3 11.2 21.5-2.5 3.5-7.7 4.3-12 4.6-7.2.3-11.6-.2-18.3-2.7 0-2.7.4-6.4.6-9.2a53 53 0 0 0 14.2 3.6c1.8.3 5.6-.7 6.7-2.3 1-1.6.4-4.6-1.3-5.5-9.1-4.9-23.2-5.2-19.7-19.6 1.3-5.8 7.7-7.5 12.8-8.1m43.7 0c6-1 11.8.8 17 3.6q-2 3.6-2.9 7.7l-.9-.3c-8.7-3.2-19-4.1-20.3 7.8-1.9 16.7 8.7 19.9 22 13.4l.5.2.3 8.7c-4.8 2.8-8.9 2.7-14.1 2.8-11 .1-18.8-6.4-20.2-17.4-1.6-14 3.6-24.6 18.6-26.5m73.3 1.1c2.7 0 6 .1 8.7.4q0 2.8-.3 5.5c4.5-5.8 9.5-6.1 16.3-5.7 0 1.7 0 7-.4 8.3-1 .7-8.3-1.2-11.4 2.6-3.5 4.1-3.3 6.8-3.4 11.7v19.9h-11.3v-28.5c0-4.2-.2-9.6 0-13.7q.8-.5 1.8-.5m-148.6 0c3.3 0 6 0 9.3.2v42.5h-12v-28.7c0-2.7-.2-11.3.2-13.6.5-.4 1.7-.3 2.4-.4m19.1-52.7c9.3-.9 14.8 3 14.6 13-.2 5.3-3 9.8-8.4 11-2.7.4-6.7.6-9-.9-8.8-5.7-7.7-20 2.8-23"/><path d="M279 43c3.5-.3 7.2 1.1 8.2 4.5 1.8 6.2 1.3 12.7-5 15.2-8 1.3-10-8.4-8.1-14.1 1-3 2.3-4.2 5-5.6"/><path fill="#fcfcfc" d="M388.2 40.8c10.1-.8 11.9 2.6 12.9 11.9-5.6.4-11.7 0-17 .4.8 7.3 3.8 10.8 11.3 9 1.6-.3 3.8-1.2 5 0l-.2.5c-2.8 3-11.2 3.3-14.7 1.3-8.4-5-7.1-20.4 2.7-23.1"/><path d="M389.7 43c3.7-.2 6.3 2.3 7.3 5.9q.1.9-.7 1.5c-1.3.5-3.3.4-4.7.5s-6.2.2-7.2-.6c-.8-2.4 3.1-6.4 5.3-7.3"/><path fill="#fcfcfc" d="M356.5 31h3.5l.3 12c4.6-3 14.6-4.4 15.7 3 .9 5.8.5 13.1.5 19h-3.8c0-5 .2-11.8-.1-16.5-1.9-9.6-11.1-5.7-12.1 1-.7 4.4-.3 10.8-.3 15.6h-3.8c-.1-10.7-.2-23.4.1-34m-44.9 10.4c10.5-2.3 15-.3 14.6 11-.2 4 0 8.5 0 12.5h-4.3l.1-16.5c0-6.4-6.7-7-9.9-3.7-3 3.2-2 15.5-1.9 20.2h-4.6V40.7l3 .2c.9.5 1 .6 1.6 1.6h.4zM261 32.6l4.4.1V51c0 3.9.2 8.3-.3 12.1-.6 4.8-1.5 6-6.1 6.1q-2.8 0-5.5-.7c1.6-.6 5.2-1.3 6.3-2.4 1.7-1.5 1-8.1 1.1-10.3.4-7.5-.6-15.8.1-23.1m81.8 2 3.9.1-.5 5.6c1.5.1 6.8.1 7.5 1.5-1.3 1-5.6.9-7.3 1 .1 3.5-.4 16.9.8 19.4 1.1 1 4.3.5 5.8.4q.4.2.6.6c.2.8.2.5-.2 1.3-1.5 1-9.1.7-9.9-1-2-4.4-1.2-16-1.2-20.8l-5.2-1 5.7-1.5zm-46.4 6.1h4.3c0 3.9.5 21.8-.2 24.2h-4.2c.4-7.6.2-16.6.1-24.2m-40.2 36.6H268v8l-12-.1zm41.7-44.6c1.2 0 2.3-.2 3 1-.6.6-.6.4-1.7.6-1 0-2.7 0-3.4-.9q.9-.7 2-.7"/></svg>