<svg xmlns="http://www.w3.org/2000/svg" width="1300" height="1300"><path fill="#05467f" d="M624 0h49c11 2 28 2 40 3q40 4 79 13a651 651 0 0 1 506 576l2 33v51l-3 38q-3 35-11 71a650 650 0 0 1-572 512l-36 3h-54l-34-3a656 656 0 0 1-325-123A650 650 0 0 1 3 713c-1-12-1-28-3-39v-47l2-30q2-26 7-53A650 650 0 0 1 606 2z"/><path fill="#31b3fe" d="M208 288h9v9h9v10h9v9h9v9h9v9h9v9h19v9h9v9h18v9h9v9h18v9h-9v45h-9v38c18-21 28-10 40 7l11 14q3 5 8 8c12-7-2-77 24-82 17-3 40-5 47 15q3-1 5 1 2 3 1 8h18v9c3 0 10-1 13 1q-10 3-14 11c-10 21-8 134-4 160l-1 1h-43c-7 17-15 32-36 35-37 4-44-31-67-50-15 10-27 37-46 45-12 6-31 7-44 3-15-5-22-20-28-34-5 2-107 1-120 1v-37h9v-63h9v-27h9v-36h9v-19h9v-27h10v-18h9v-18h9v-18h9v-9h9v-18h9v-9h9v-18h9v-10h9z"/><path fill="#0A307D" d="M208 288h9v9h9v10h9v9h9v9h9v9h9v9h19v9h9v9h18v9h9v9h18v9h-9v45h-9v38c-5 6-20 27-25 31-5-2-5-19-6-24-3-20-2-61-29-63h-57l-9 2q-12 4-18 15a928 928 0 0 0 28 191c-5 2-107 1-120 1v-37h9v-63h9v-27h9v-36h9v-19h9v-27h10v-18h9v-18h9v-18h9v-9h9v-18h9v-9h9v-18h9v-10h9zm239 145q3-1 5 1 2 3 1 8h18v9c3 0 10-1 13 1q-10 3-14 11c-10 21-8 134-4 160l-1 1h-43c12-30 33-163 25-191"/><path fill="#fefefe" d="M1087 307h18v9h9v18h9v9h9v18h9v18h9v18h10v18h9v9c5 0 25-1 27 1l2 7v92h7v63h9v9h-9v10h9v18h-16c0 6 2 19-2 22l-21 1h-45c-19 0-166 1-171-1-4-5-2-43-2-52V428q0-3 3-4v-9h-9v-9h9v-9h18v-9h18v-9h9v-9h19v-9h9v-9h18v-9h9v-9h9v-9h9v-9h9z"/><path fill="#0A307D" d="M1087 307h18v9h9v18h9v9h9v18h9v18h9v18h10v18h9v9H960v-9h-9v-9h9v-9h18v-9h18v-9h9v-9h19v-9h9v-9h18v-9h9v-9h9v-9h9v-9h9zm111 217h7v63h9v9h-9v10h9v18h-16zm-92-87c6 4 18 18 24 24l60 61-87 86-84-84z"/><path fill="#fefefe" d="M1136 480c4 0 17 14 19 18v1l-72 73c-4 0-17-14-20-18 5-7 23-24 29-30z"/><path fill="#0A307D" d="m1137 489 9 9-23 25-41 40-9-9z"/><path fill="#fefefe" d="M1062 497c4 0 20 18 24 22l-22 21c-5 0-20-16-24-20 5-8 15-17 22-23"/><path fill="#0A307D" d="m1063 506 13 13-13 13-13-13z"/><path fill="#fefefe" d="M1099 460c4 2 19 18 23 22l-22 23c-7-4-19-16-23-23z"/><path fill="#0A307D" d="m1099 469 13 13-13 13-13-13z"/><path fill="#0A307D" d="M964 431h138l-63 62c-5 5-26 26-29 31 3 7 77 78 88 90h-57l-23-39c-2-5-9-19-14-22l-3 1c-8 9-16 28-23 37l-14 24z"/><path fill="#05467f" d="m964 470 5 1v71h9v49l-14 24zm13 151h172c7 0 39-1 42 1v18H964v-19z"/><path fill="#0A307D" d="M977 621h172c7 0 39-1 42 1v2H979zm214-90v83h-83v-1l22-23zm-80-100h80v81z"/><path fill="#05467f" d="M1169 431h22v66l-4-1v-35h-9v-19h-9z"/><path fill="#0A307D" d="M1003 564c5 5 24 41 29 49h-26c-6 0-26 1-30-1 0-4 23-42 27-48m-25 150h227v46h-9v36h-9v27h-9v27h-9v27h-9v19h-10v9h-9v18h-9v18h-9v18h-9v9h-9v18h-9v9h-9v9h-9v9h-9v9h-9v9h-18v-9h-9v-9h-9v-9h-9v-9h-10v-9h-18v-9h-9v-9h-18v-45h9v-73h9c0-3-1-21 1-23l-8-3q-3-1-5-6c-3-13-5-79 1-88q5-6 14-7h-2q-2-5-1-9"/><path fill="#31b3fe" d="M981 723c20-4 57-4 75 7 15 8 17 31 9 45l-9 8c18 23 29 51-15 44-13-2-15-21-22-31 0 22 1 33-26 32l-14-1-8-3q-3-1-5-6c-3-13-5-79 1-88q5-6 14-7"/><path fill="#0A307D" d="M1029 748c16-1 20 12 7 17q-12 3-16-8-1-2 1-5 3-3 8-4"/><path fill="#31b3fe" d="m1125 719 16 1c12 1 30 5 39 15 6 7-1 17-7 22l-19-9-4 2q-1 7 5 10c16 9 28 18 24 39-4 23-20 28-40 31-19 0-47-1-60-18q-1-10 6-17c7-6 20 9 26 4 2-7-10-12-15-16q-13-7-15-22c-3-31 19-38 44-42"/><path fill="#0A307D" d="M262 714c6-7 32-32 40-34 2 0 6 7 7 8 2 5 17 15 12 21q-13 3-22 13v41c17-6 36-16 48-30 5 0 8 7 11 11q5 2 5 6-3 7-10 11l-24 17q-15 9-30 14v22h9v91h9v54h-18v9h-9v9h-19v9h-9v9h-9v9h-9v9h-9v9h-9v-9h-9v-9h-9v-9h-9v-9h-9v-18h-9v-9h-9v-18h-9v-18h-9v-18h-9v-19h-9v-9h-10v-27h-9v-27h-9v-27h-9v-36h-9v-46z"/><path fill="#fefefe" d="M262 714c6-7 32-32 40-34 2 0 6 7 7 8 2 5 17 15 12 21q-13 3-22 13v41c17-6 36-16 48-30 5 0 8 7 11 11q5 2 5 6-3 7-10 11l-24 17q-15 9-30 14-18 5-35-3l-31 15-28 16c-12 6-29 14-42 10s-6-19 2-25q21-14 45-24 17-11 35-18c0-23 2-30 17-49"/><path fill="#0A307D" d="M299 722v41c-18 4-29-2-18-21q7-12 18-20"/><path fill="#0A307D" d="M270 714q14-14 30-26l14 16-15 10c-13 10-26 22-28 39-2 15 14 18 25 16h3v17c-13 4-24 5-35-5-8 7-26 14-39 21-15 7-43 28-62 22-5-2 2-12 6-15q14-10 30-17l31-16q12-4 21-12l-1-13q4-22 20-37"/><path fill="#05467f" d="M270 714q14-14 30-26l14 16-15 10zm79 27 8 10c-23 16-31 24-58 35v-17c16-4 37-18 50-28"/><path fill="#0A307D" d="M685 720q-5 0-7-3 0-3 5-3h205v8c15-1 53-2 66 9 3 3 2 15-1 17-8 8-30-8-33 7q-1 4 1 6c9 9 27-4 26 15 0 17-25 2-27 15-3 19 26 4 33 10 4 4 4 16-1 20-18 10-45 5-64 7l-1 4h-8v73h-9v9h-10v-9h-18v-9h-27v-10h-36v-9h-36v-9h-64v-38c-14 0-46-3-54-20-1-2 1-10 3-13 8-10 19 6 27 4l2-4c-1-11-32-15-31-40 2-37 32-36 59-37"/><path fill="#31b3fe" d="M679 830c-14 0-46-3-54-20-1-2 1-10 3-13 8-10 19 6 27 4l2-4c-1-11-32-15-31-40 2-37 32-36 59-37q24 0 42 17c0 7-1 19-10 19-7 0-16-10-22-7-5 13 31 16 30 43-1 29-21 38-46 38m209-108c15-1 53-2 66 9 3 3 2 15-1 17-8 8-30-8-33 7q-1 4 1 6c9 9 27-4 26 15 0 17-25 2-27 15-3 19 26 4 33 10 4 4 4 16-1 20-18 10-45 5-64 7-6-1-19-1-24-6-5-6-5-21-5-28 0-12-2-58 5-65q11-8 24-7m-128-1c29-1 29 8 26 32 0 2 0 8 2 9 29 12 11-25 18-37 4-6 29-4 35 0q4 4 5 9 3 41 1 80c-1 15-11 14-23 14h-11c-17-3-3-30-9-39-1-1-9-3-11-2-13 3-3 26-10 35q-3 4-10 5c-9 2-24 2-32-3q-4-3-4-9-3-19-2-40-2-18 0-36c1-15 13-16 25-18m91-279h19l-1 34c9 17 10 25 9 44 2 3 1 34 1 40h9v64h-12l-5 5-9 9c-29 23-103 21-140 18-10-1-35-3-41-12-12-16-9-147-4-173 1-4 3-13 7-15 21-14 88-13 114-10l33 6 20-1z"/><path fill="#0A307D" d="M878 520c2 3 1 34 1 40h9v64h-12c15-25 5-56-19-72l3-2q15-12 18-30m-27-78h19l-1 34q-14-20-38-24l20-1zm-54 130c40-4 45 30 15 37-7 1-21 0-27-3-8-6-8-21-3-28q6-6 15-6m-5-75c17-3 39 1 34 24-6 6-8 7-16 9-8 1-20 3-28-2-7-5-8-17-3-24q5-7 13-7M400 825l-4-1q-5-1-7-5c-4-10-3-94 1-104q1-4 5-5c13-5 47-4 61-1l18 6c4-2 103-1 115-1 0 5 1 26-1 29v1c9 21 31 53 28 77-1 6-22 7-27 7v40h-64v9h-45v9h-27v10h-27v9h-19v-19h-9v-60z"/><path fill="#31b3fe" d="m400 825-4-1q-5-1-7-5c-4-10-3-94 1-104q1-4 5-5c13-5 47-4 61-1l18 6c46 27 37 99-16 111-15 3-44 3-58-1"/><path fill="#0A307D" d="M453 739c24 1 26 36 13 51l-7 4q-9 1-9-8c-1-10-3-39 3-47"/><path fill="#31b3fe" d="m589 828-15-1c-12-3-8-7-13-13q-2-4-7-4h-11c-17 0-7 8-17 15q-8 3-17 1-4 0-6-3-2-7 1-14c4-17 27-77 42-86q11-5 21-2c11 3 16 13 21 22v1c9 21 31 53 28 77-1 6-22 7-27 7"/><path fill="#0A307D" d="M544 775c3 2 8 12 8 16l-5 1q-5 1-8-1 0-9 5-16"/><path fill="#31b3fe" d="m484 452 32-6c28-3 107-3 132 11q6 3 9 11c2 8 1 20-3 28q-3 5-9 6c-14 3-47-11-57 1 1 3 2 18 0 21 7 8 24 8 34 8q21-1 19 21c-1 31-37 10-52 23 0 4 1 20-1 23h1q3 4 11 5l29-2q8-2 16-1 5 0 8 3c5 5 5 17 5 24q0 10-8 15c-22 19-114 16-143 13-10-2-28-4-35-13-5-6-3-15-6-20-4-26-6-139 4-160q4-8 14-11"/><path fill="#0A307D" d="M589 576c0 4 1 20-1 23q-7-12 1-23m-1-73c1 3 2 18 0 21q-7-10 0-21m91 456h46v9h45v9h27v9h27v9h18v9h9v37h-9v27h-9v27h-9v27h-9v27h-9v18h-9v19h-9v9h-36v9h-73zm0-879h27v18h9v18h10v9h9v9h9v9h9v9h9v19h9v9h9v18h9v9h9v18h9v27h9v18h9v27h9v28h9v27h-9v9h-36v9h-36v9h-82zM534 959h55v245h-46v-9h-45v-8c-1-2-15-1-18-1v-19h-9v-18h-9v-27h-9v-27h-9v-27h-9v-37h-9v-36h18v-9h27v-9h27v-9h36zm46-879h9v299h-19v-9h-45v-9h-36v-9h-27v-9h-18v-9h-9v-9h9v-28h9v-27h9v-27h9v-18h9v-18h9v-18h9v-18h9v-19h9v-9h9v-18h9v-9h9v-9h9V89h28zm262 36h18v9h19v9h18v9h18v9h18v10h18v9h9v9h18v9h9v9h9v9h19v9h9v9h9v9h9v9h-9v9h-18v9h-10v9h-9v9h-18v9h-9v9h-18v10h-9v9h-9v-9h-9v-28h-9v-18h-9v-27h-9v-18h-9v-18h-9v-18h-9v-18h-10v-19h-9v-18h-9zm-426 18v18h-9v19h-9v18h-9v18h-9v27h-9v18h-9v27h-9v9h-9v-9h-18v-9h-9v-9h-9l-1-9h-8v-9h-9v-9h-9v-9h-10v-9h10v-9h18v-9h9v-9h9v-9h18v-9h9v-9h18v-10h18v-9h18v-9zm517 925h18v9h9v9h9v9h9v18h-9v9h-9v9h-18v9h-18v9h-9v-27h9v-27h9zm-607-9h18v36h9v27h9v18h-9v-9h-18v-9h-9v-9h-9v-9h-18v-9h-9v-9h18v-9h9v-9h9zm90-925h10v9h-10z"/></svg>